<svg width="734.894" height="87.891" viewBox="0 0 734.894 87.891" xmlns="http://www.w3.org/2000/svg"><g id="svgGroup" stroke-linecap="round" fill-rule="evenodd" font-size="9pt" stroke="#00000000" stroke-width="0.25mm" fill="#f75819" style="stroke:#00000000;stroke-width:0.25mm;fill:#f75819"><path d="M 488.983 57.648 L 490.356 57.77 A 4.268 4.268 0 0 1 491.034 57.876 Q 491.367 57.958 491.607 58.095 A 1.133 1.133 0 0 1 492.218 59.143 A 15.473 15.473 0 0 1 492.151 60.273 Q 491.854 63.804 490.234 76.386 A 1.482 1.482 0 0 1 489.989 76.97 Q 489.475 77.759 487.92 78.86 A 24.654 24.654 0 0 1 487.228 79.331 A 36.793 36.793 0 0 1 484.671 80.858 Q 482.627 81.976 480.072 83.099 A 54.332 54.332 0 0 1 458.099 87.769 A 51.18 51.18 0 0 1 439.862 84.546 A 48.72 48.72 0 0 1 436.371 83.069 A 38.012 38.012 0 0 1 420.197 68.512 Q 414.022 58.687 413.854 44.329 A 68.967 68.967 0 0 1 413.849 43.518 A 47.552 47.552 0 0 1 416.407 27.545 A 39.7 39.7 0 0 1 432.037 7.752 A 44.231 44.231 0 0 1 452.052 0.398 A 56.83 56.83 0 0 1 458.862 0 A 41.647 41.647 0 0 1 483.765 8.24 A 520.001 520.001 0 0 1 484.17 8.539 Q 484.984 9.14 485.245 9.338 A 3.346 3.346 0 0 0 485.605 9.579 A 2.693 2.693 0 0 0 485.886 9.72 Q 486.206 9.857 486.343 9.689 Q 486.48 9.522 486.481 9.007 A 3.662 3.662 0 0 0 486.481 9.003 L 486.481 5.646 Q 486.481 4.74 486.72 4.285 A 0.984 0.984 0 0 1 486.893 4.044 A 0.96 0.96 0 0 1 487.203 3.847 Q 487.691 3.642 488.685 3.632 A 10.243 10.243 0 0 1 488.785 3.632 A 8.82 8.82 0 0 1 489.514 3.66 Q 490.239 3.72 490.699 3.911 A 1.893 1.893 0 0 1 490.936 4.028 A 1.209 1.209 0 0 1 491.435 4.619 Q 491.608 5.026 491.608 5.646 L 491.089 30.396 A 4.409 4.409 0 0 1 491.066 30.861 Q 491.016 31.336 490.852 31.602 A 0.722 0.722 0 0 1 490.616 31.845 Q 490.177 32.114 488.795 32.134 A 15.767 15.767 0 0 1 488.571 32.135 A 12.264 12.264 0 0 1 487.934 32.12 Q 486.964 32.069 486.544 31.851 A 0.999 0.999 0 0 1 486.481 31.815 A 0.958 0.958 0 0 1 486.106 31.365 Q 486.03 31.189 485.994 30.96 A 2.856 2.856 0 0 1 485.962 30.518 L 486.481 19.013 A 1.731 1.731 0 0 0 486.251 18.234 Q 485.669 17.118 483.617 15.337 A 39.293 39.293 0 0 0 482.498 14.404 A 83.858 83.858 0 0 0 479.604 12.173 Q 477.268 10.456 475.189 9.216 Q 467.224 4.517 457.977 4.517 A 26.183 26.183 0 0 0 437.082 14.283 A 39.614 39.614 0 0 0 432.983 20.203 A 42.052 42.052 0 0 0 428.165 33.849 A 56.904 56.904 0 0 0 427.338 43.762 A 41.26 41.26 0 0 0 430.038 58.594 A 41.461 41.461 0 0 0 434.515 67.247 A 36.469 36.469 0 0 0 437.317 70.847 Q 441.895 76.019 448.257 79.086 A 35.059 35.059 0 0 0 453.279 81.072 Q 456.116 81.934 458.752 82.109 A 20.084 20.084 0 0 0 460.083 82.153 A 69.028 69.028 0 0 0 463.959 82.05 Q 467.005 81.879 469.437 81.421 Q 472.765 80.794 475.279 79.922 A 26.537 26.537 0 0 0 476.105 79.62 Q 478.882 78.552 481.11 77.393 A 43.986 43.986 0 0 0 482.592 76.566 Q 485.379 74.934 485.582 74.089 A 0.578 0.578 0 0 0 485.596 74.005 L 487.213 59.509 A 3.671 3.671 0 0 1 487.407 58.773 Q 487.845 57.648 488.983 57.648 Z M 10.864 65.888 L 10.864 49.255 A 2404.943 2404.943 0 0 0 10.845 39.235 Q 10.73 11.87 9.946 7.381 A 1.133 1.133 0 0 0 9.613 6.5 L 2.35 6.775 A 4.919 4.919 0 0 1 1.717 6.737 Q 1.028 6.648 0.647 6.344 A 1.247 1.247 0 0 1 0.519 6.226 A 1.5 1.5 0 0 1 0.226 5.75 Q 0.042 5.293 0.008 4.579 A 7.071 7.071 0 0 1 0 4.242 A 5.861 5.861 0 0 1 0.026 3.664 Q 0.12 2.721 0.549 2.411 A 1.577 1.577 0 0 1 0.961 2.206 Q 1.517 2.014 2.472 2.014 L 16.998 2.258 L 35.126 1.526 A 51.907 51.907 0 0 1 44.391 2.284 Q 58.602 4.872 61.859 16.296 A 22.565 22.565 0 0 1 62.743 22.285 A 21.27 21.27 0 0 1 62.744 22.476 Q 62.744 25.274 62.173 27.436 A 13.595 13.595 0 0 1 62.058 27.847 A 20.122 20.122 0 0 1 61.108 30.411 A 16.518 16.518 0 0 1 60.303 31.967 A 20.682 20.682 0 0 1 58.255 34.837 A 23.615 23.615 0 0 1 57.694 35.477 A 33.361 33.361 0 0 1 55.986 37.226 A 25.996 25.996 0 0 1 54.657 38.406 A 32.118 32.118 0 0 1 52.046 40.344 A 36.226 36.226 0 0 1 51.392 40.772 A 59.33 59.33 0 0 1 49.639 41.867 Q 48.056 42.815 46.814 43.396 A 103.299 103.299 0 0 0 46.37 43.605 Q 45.044 44.233 44.907 44.354 A 0.052 0.052 0 0 0 44.891 44.373 A 0.012 0.012 0 0 0 44.891 44.377 Q 44.891 44.474 46.31 44.937 A 37.926 37.926 0 0 1 47.821 45.467 A 49.991 49.991 0 0 1 49.454 46.112 Q 50.751 46.65 52.334 47.509 A 49.051 49.051 0 0 1 53.33 48.065 A 27.033 27.033 0 0 1 56.238 49.982 A 23.457 23.457 0 0 1 57.251 50.797 A 21.62 21.62 0 0 1 58.947 52.417 Q 59.855 53.378 60.776 54.55 A 24.232 24.232 0 0 1 63.782 59.509 Q 66.478 65.404 66.844 73.399 A 53.465 53.465 0 0 1 66.864 73.883 A 224.226 224.226 0 0 0 66.927 75.541 Q 67.151 80.852 67.474 81.267 A 0.138 0.138 0 0 0 67.49 81.284 A 1.733 1.733 0 0 0 67.727 81.469 Q 67.986 81.635 68.237 81.635 L 73.975 81.635 A 2.857 2.857 0 0 1 74.496 81.679 Q 74.783 81.732 75.002 81.85 A 1.227 1.227 0 0 1 75.455 82.26 Q 75.853 82.865 75.866 84.655 A 16.822 16.822 0 0 1 75.867 84.778 A 1.294 1.294 0 0 1 75.689 85.472 Q 75.269 86.151 73.853 86.151 L 56.732 85.754 A 1.977 1.977 0 0 1 56.189 85.686 Q 55.579 85.512 55.417 84.89 A 2.023 2.023 0 0 1 55.359 84.381 L 55.359 77.149 A 124.08 124.08 0 0 0 55.229 71.262 Q 54.956 65.529 54.106 61.779 A 21.677 21.677 0 0 0 53.284 58.96 A 23.653 23.653 0 0 0 51.476 55.11 Q 49.635 52.004 47.058 50.293 Q 42.053 46.936 34.119 46.753 L 22.614 46.631 A 1.45 1.45 0 0 0 22.215 46.681 Q 21.606 46.855 21.606 47.638 A 273.383 273.383 0 0 0 21.636 51.428 Q 21.725 57.762 22.08 67.993 Q 22.485 79.677 22.856 81.354 A 0.366 0.366 0 0 0 22.98 81.635 L 30.243 81.635 A 4.166 4.166 0 0 1 30.703 81.658 Q 31.39 81.735 31.647 82.062 Q 31.98 82.486 31.982 83.782 A 10.122 10.122 0 0 1 31.982 83.801 Q 31.982 84.821 31.78 85.362 A 1.407 1.407 0 0 1 31.647 85.632 Q 31.331 86.12 30.368 86.149 A 4.133 4.133 0 0 1 30.243 86.151 L 16.724 85.754 L 4.486 86.151 Q 3.492 86.151 3.015 85.862 A 0.973 0.973 0 0 1 2.762 85.648 A 1.321 1.321 0 0 1 2.556 85.273 Q 2.35 84.724 2.35 83.71 Q 2.35 82.275 2.853 81.955 A 1.328 1.328 0 0 1 3.175 81.815 Q 3.705 81.652 4.746 81.636 A 15.134 15.134 0 0 1 4.974 81.635 L 10.376 81.635 Q 10.864 81.635 10.864 65.888 Z M 197.815 41.26 L 191.681 41.382 A 2.485 2.485 0 0 1 191.339 41.36 Q 190.951 41.306 190.789 41.115 A 0.514 0.514 0 0 1 190.674 40.772 A 8.915 8.915 0 0 1 190.726 39.759 Q 190.849 38.695 191.256 38.159 A 1.307 1.307 0 0 1 192.169 37.628 Q 192.327 37.606 192.419 37.6 A 0.887 0.887 0 0 1 192.474 37.598 Q 192.993 37.511 198.091 37.289 A 885.368 885.368 0 0 1 198.715 37.262 Q 203.365 37.063 205.479 37.026 A 48.374 48.374 0 0 1 206.299 37.018 Q 207.912 37.018 208.239 37.184 A 0.166 0.166 0 0 1 208.313 37.247 Q 208.435 37.476 208.435 38.147 L 208.435 72.144 A 6.617 6.617 0 0 0 212.412 78.469 Q 215.367 79.944 220.519 80.116 A 41.968 41.968 0 0 0 221.924 80.139 A 52.962 52.962 0 0 0 227.305 79.856 A 60.622 60.622 0 0 0 229.172 79.636 Q 232.941 79.132 232.941 78.522 L 232.941 63.751 A 854.02 854.02 0 0 0 232.925 58.394 Q 232.833 43.764 232.202 41.364 A 0.546 0.546 0 0 0 231.934 40.894 L 225.678 41.138 Q 224.911 41.138 224.728 40.926 A 0.229 0.229 0 0 1 224.67 40.772 Q 224.67 38.131 225.161 37.74 A 0.356 0.356 0 0 1 225.189 37.72 Q 225.621 37.44 226.286 37.394 A 3.942 3.942 0 0 1 226.563 37.384 L 241.058 36.774 A 3.851 3.851 0 0 1 241.476 36.794 Q 241.891 36.84 242.099 36.986 A 0.462 0.462 0 0 1 242.31 37.384 L 242.31 37.903 Q 242.205 63.398 242.19 71.112 A 1124.75 1124.75 0 0 0 242.188 73.227 A 287.954 287.954 0 0 0 242.193 75.139 Q 242.217 78.746 242.34 79.992 A 7.945 7.945 0 0 0 242.355 80.139 Q 242.523 81.574 242.92 82.047 Q 243.317 82.52 244.171 82.52 L 249.664 81.757 Q 250.342 81.757 250.418 82.959 A 5.136 5.136 0 0 1 250.427 83.283 Q 250.427 84.509 250.289 84.957 A 0.671 0.671 0 0 1 250.214 85.129 A 0.403 0.403 0 0 1 250.038 85.222 Q 249.15 85.54 243.906 86.327 A 377.32 377.32 0 0 1 241.989 86.609 Q 234.745 87.658 233.852 87.758 A 1.516 1.516 0 0 1 233.734 87.769 A 0.139 0.139 0 0 1 233.646 87.657 Q 233.463 87.174 233.339 84.613 A 80.2 80.2 0 0 1 233.337 84.58 A 220.227 220.227 0 0 0 233.3 83.832 Q 233.175 81.39 233.109 81.39 A 0.149 0.149 0 0 0 233.071 81.4 Q 232.906 81.455 232.093 81.843 A 94.161 94.161 0 0 0 231.796 81.986 A 34.19 34.19 0 0 1 231.127 82.298 Q 230.197 82.721 228.926 83.246 A 109.771 109.771 0 0 1 228.5 83.42 A 66.075 66.075 0 0 1 226.337 84.255 A 83.761 83.761 0 0 1 223.969 85.083 A 44.033 44.033 0 0 1 219.213 86.436 Q 212.635 87.892 207.672 86.487 A 10.778 10.778 0 0 1 200.359 79.513 Q 199.501 77.284 199.152 74.393 A 35.686 35.686 0 0 1 198.914 70.129 L 198.914 50.507 A 121.753 121.753 0 0 0 198.887 47.843 Q 198.742 41.26 197.815 41.26 Z M 585.571 85.999 L 572.083 85.754 L 561.707 85.999 A 4.781 4.781 0 0 1 561.18 85.972 Q 560.393 85.884 560.089 85.51 Q 559.73 85.069 559.696 84.102 A 5.923 5.923 0 0 1 559.692 83.893 A 3.103 3.103 0 0 1 559.781 83.114 Q 560.103 81.879 561.585 81.879 L 566.193 81.879 A 0.157 0.157 0 0 0 566.307 81.762 Q 566.681 80.944 566.681 74.402 L 566.559 63.873 L 566.559 56.397 A 1299.974 1299.974 0 0 0 566.555 53.142 Q 566.528 42.511 566.315 42.511 L 562.195 42.511 A 4.975 4.975 0 0 1 561.751 42.493 Q 561.299 42.452 561.031 42.321 A 0.771 0.771 0 0 1 560.776 42.13 A 0.939 0.939 0 0 1 560.625 41.858 Q 560.463 41.433 560.456 40.603 A 9.002 9.002 0 0 1 560.455 40.527 A 9.124 9.124 0 0 1 560.468 40.033 Q 560.509 39.275 560.688 38.954 A 0.738 0.738 0 0 1 560.715 38.91 A 0.725 0.725 0 0 1 561.02 38.655 Q 561.271 38.536 561.672 38.517 A 3.331 3.331 0 0 1 561.829 38.513 L 565.582 38.513 Q 566.092 38.513 566.261 38.407 A 0.213 0.213 0 0 0 566.315 38.361 Q 566.413 38.237 566.432 37.676 A 8.697 8.697 0 0 0 566.437 37.384 L 566.193 25.269 A 45.168 45.168 0 0 1 566.857 17.203 Q 569.025 5.293 578.278 1.648 A 19.041 19.041 0 0 1 583.45 0.361 A 17.394 17.394 0 0 1 585.175 0.275 Q 588.623 0.275 591.064 1.312 A 10.511 10.511 0 0 1 595.169 4.395 A 7.767 7.767 0 0 1 596.349 6.344 A 6.381 6.381 0 0 1 596.832 8.789 Q 596.832 11.139 594.452 13.199 A 13.721 13.721 0 0 1 593.233 14.148 Q 591.927 15.042 590.844 15.216 A 3.214 3.214 0 0 1 590.332 15.259 A 2.976 2.976 0 0 1 589.628 15.183 Q 588.558 14.922 588.44 13.764 A 0.883 0.883 0 0 0 588.435 13.701 Q 588.402 13.396 588.173 11.676 A 954.309 954.309 0 0 0 588.089 11.047 Q 587.738 8.423 586.731 6.119 A 3.874 3.874 0 0 0 585.594 4.595 Q 584.574 3.79 582.947 3.754 Q 581.33 3.754 580.324 4.397 A 3.129 3.129 0 0 0 579.407 5.295 Q 578.613 6.474 578.114 7.448 A 12.394 12.394 0 0 0 577.835 8.026 Q 577.376 9.049 577.064 10.421 A 18.958 18.958 0 0 0 576.965 10.88 Q 576.63 12.543 576.416 14.038 A 30.245 30.245 0 0 0 576.243 15.534 Q 576.17 16.322 576.124 17.203 A 50.951 50.951 0 0 0 576.111 17.456 Q 575.974 20.323 575.96 22.237 A 58.294 58.294 0 0 0 575.958 22.675 Q 575.958 24.395 575.758 33.464 A 5285.694 5285.694 0 0 1 575.684 36.774 A 4.922 4.922 0 0 0 575.705 37.257 Q 575.787 38.076 576.172 38.269 Q 576.574 38.47 577.949 38.506 A 24.663 24.663 0 0 0 578.583 38.513 L 592.438 38.513 A 3.332 3.332 0 0 1 592.863 38.538 Q 593.312 38.596 593.517 38.791 A 0.559 0.559 0 0 1 593.689 39.215 Q 593.689 39.848 593.429 40.915 A 17.257 17.257 0 0 1 593.369 41.153 Q 593.096 42.205 592.702 42.361 A 0.381 0.381 0 0 1 592.56 42.389 L 578.583 42.389 Q 577.118 42.389 576.66 42.587 A 0.69 0.69 0 0 0 576.281 43.002 Q 576.232 43.135 576.214 43.303 A 1.975 1.975 0 0 0 576.202 43.518 L 576.202 64.27 Q 576.202 81.879 577.332 81.879 L 585.815 81.879 Q 586.846 81.879 587.079 82.255 A 0.445 0.445 0 0 1 587.082 82.26 A 1.023 1.023 0 0 1 587.181 82.502 Q 587.311 82.953 587.311 83.908 A 9.821 9.821 0 0 1 587.298 84.421 Q 587.254 85.265 587.051 85.587 A 0.618 0.618 0 0 1 586.805 85.799 Q 586.44 85.989 585.655 85.998 A 6.943 6.943 0 0 1 585.571 85.999 Z M 623.81 85.999 L 610.321 85.754 L 599.945 85.999 A 4.781 4.781 0 0 1 599.418 85.972 Q 598.631 85.884 598.328 85.51 Q 597.969 85.069 597.935 84.102 A 5.923 5.923 0 0 1 597.931 83.893 A 3.103 3.103 0 0 1 598.02 83.114 Q 598.341 81.879 599.823 81.879 L 604.431 81.879 A 0.157 0.157 0 0 0 604.546 81.762 Q 604.919 80.944 604.919 74.402 L 604.797 63.873 L 604.797 56.397 A 1299.974 1299.974 0 0 0 604.794 53.142 Q 604.767 42.511 604.553 42.511 L 600.433 42.511 A 4.975 4.975 0 0 1 599.99 42.493 Q 599.538 42.452 599.27 42.321 A 0.771 0.771 0 0 1 599.014 42.13 A 0.939 0.939 0 0 1 598.863 41.858 Q 598.701 41.433 598.694 40.603 A 9.002 9.002 0 0 1 598.694 40.527 A 9.124 9.124 0 0 1 598.706 40.033 Q 598.748 39.275 598.926 38.954 A 0.738 0.738 0 0 1 598.953 38.91 A 0.725 0.725 0 0 1 599.258 38.655 Q 599.509 38.536 599.911 38.517 A 3.331 3.331 0 0 1 600.067 38.513 L 603.821 38.513 Q 604.33 38.513 604.5 38.407 A 0.213 0.213 0 0 0 604.553 38.361 Q 604.652 38.237 604.671 37.676 A 8.697 8.697 0 0 0 604.675 37.384 L 604.431 25.269 A 45.168 45.168 0 0 1 605.095 17.203 Q 607.264 5.293 616.516 1.648 A 19.041 19.041 0 0 1 621.689 0.361 A 17.394 17.394 0 0 1 623.413 0.275 Q 626.862 0.275 629.303 1.312 A 10.511 10.511 0 0 1 633.408 4.395 A 7.767 7.767 0 0 1 634.588 6.344 A 6.381 6.381 0 0 1 635.071 8.789 Q 635.071 11.139 632.69 13.199 A 13.721 13.721 0 0 1 631.471 14.148 Q 630.165 15.042 629.083 15.216 A 3.214 3.214 0 0 1 628.571 15.259 A 2.976 2.976 0 0 1 627.867 15.183 Q 626.797 14.922 626.679 13.764 A 0.883 0.883 0 0 0 626.673 13.701 Q 626.64 13.396 626.411 11.676 A 954.309 954.309 0 0 0 626.328 11.047 Q 625.977 8.423 624.97 6.119 A 3.874 3.874 0 0 0 623.832 4.595 Q 622.813 3.79 621.185 3.754 Q 619.568 3.754 618.563 4.397 A 3.129 3.129 0 0 0 617.645 5.295 Q 616.851 6.474 616.352 7.448 A 12.394 12.394 0 0 0 616.074 8.026 Q 615.615 9.049 615.302 10.421 A 18.958 18.958 0 0 0 615.204 10.88 Q 614.868 12.543 614.655 14.038 A 30.245 30.245 0 0 0 614.481 15.534 Q 614.408 16.322 614.362 17.203 A 50.951 50.951 0 0 0 614.349 17.456 Q 614.213 20.323 614.199 22.237 A 58.294 58.294 0 0 0 614.197 22.675 Q 614.197 24.395 613.996 33.464 A 5285.694 5285.694 0 0 1 613.922 36.774 A 4.922 4.922 0 0 0 613.944 37.257 Q 614.025 38.076 614.41 38.269 Q 614.813 38.47 616.188 38.506 A 24.663 24.663 0 0 0 616.821 38.513 L 630.676 38.513 A 3.332 3.332 0 0 1 631.102 38.538 Q 631.55 38.596 631.755 38.791 A 0.559 0.559 0 0 1 631.928 39.215 Q 631.928 39.848 631.667 40.915 A 17.257 17.257 0 0 1 631.607 41.153 Q 631.334 42.205 630.94 42.361 A 0.381 0.381 0 0 1 630.798 42.389 L 616.821 42.389 Q 615.356 42.389 614.899 42.587 A 0.69 0.69 0 0 0 614.52 43.002 Q 614.471 43.135 614.452 43.303 A 1.975 1.975 0 0 0 614.441 43.518 L 614.441 64.27 Q 614.441 81.879 615.57 81.879 L 624.054 81.879 Q 625.085 81.879 625.318 82.255 A 0.445 0.445 0 0 1 625.32 82.26 A 1.023 1.023 0 0 1 625.419 82.502 Q 625.549 82.953 625.549 83.908 A 9.821 9.821 0 0 1 625.537 84.421 Q 625.493 85.265 625.29 85.587 A 0.618 0.618 0 0 1 625.044 85.799 Q 624.679 85.989 623.893 85.998 A 6.943 6.943 0 0 1 623.81 85.999 Z M 137.573 5.89 L 129.944 6.653 A 4.333 4.333 0 0 1 129.609 6.641 Q 129.105 6.602 128.952 6.432 A 0.253 0.253 0 0 1 128.891 6.317 Q 128.826 6.03 128.816 4.715 A 66.196 66.196 0 0 1 128.815 4.242 A 5.987 5.987 0 0 1 128.839 3.673 Q 128.893 3.118 129.062 2.826 A 0.574 0.574 0 0 1 129.578 2.503 L 147.827 0.519 Q 148.606 0.519 148.764 1.159 A 1.537 1.537 0 0 1 148.804 1.526 L 148.438 36.652 Q 148.438 39.736 148.549 40.179 A 0.086 0.086 0 0 0 148.59 40.253 Q 148.743 40.253 149.536 39.902 A 48.975 48.975 0 0 1 149.962 39.716 Q 150.55 39.463 151.334 39.14 A 147.182 147.182 0 0 1 151.596 39.032 A 43.336 43.336 0 0 1 152.927 38.513 A 55.367 55.367 0 0 1 154.388 37.994 A 23.09 23.09 0 0 1 159.784 36.85 A 20.799 20.799 0 0 1 161.56 36.774 A 25.596 25.596 0 0 1 169.71 38.041 A 23.098 23.098 0 0 1 174.21 40.1 A 22.951 22.951 0 0 1 182.877 49.149 A 26.129 26.129 0 0 1 185.398 55.811 A 22.534 22.534 0 0 1 185.944 60.73 Q 185.944 65.605 184.93 69.275 A 20.845 20.845 0 0 1 184.479 70.709 A 23.861 23.861 0 0 1 182.083 75.644 A 20.774 20.774 0 0 1 180.45 77.85 A 26.786 26.786 0 0 1 174.469 83.069 A 27.792 27.792 0 0 1 161.529 87.297 A 34.315 34.315 0 0 1 158.814 87.402 A 21.494 21.494 0 0 1 154.236 86.89 A 26.618 26.618 0 0 1 151.733 86.212 Q 148.247 85.089 146.787 85.026 A 3.86 3.86 0 0 0 146.622 85.022 A 4.638 4.638 0 0 0 145.57 85.154 Q 144.564 85.389 143.316 86.044 A 15.773 15.773 0 0 0 143.143 86.136 A 20.739 20.739 0 0 1 142.298 86.57 Q 140.889 87.25 140.198 87.25 A 1.044 1.044 0 0 1 139.203 86.657 Q 138.947 86.165 138.947 85.266 A 1.704 1.704 0 0 1 138.948 85.203 Q 138.954 85.058 138.98 84.689 A 73.779 73.779 0 0 1 138.992 84.519 A 40.413 40.413 0 0 0 139.017 84.153 Q 139.057 83.527 139.114 82.428 A 88.889 88.889 0 0 0 139.152 81.642 Q 139.198 80.56 139.239 79.124 A 269.092 269.092 0 0 0 139.252 78.644 Q 139.435 73.547 139.435 59.082 A 998.83 998.83 0 0 0 139.364 47.544 Q 139.305 42.45 139.197 36.877 A 1766.959 1766.959 0 0 0 138.931 25.253 Q 138.5 8.669 137.811 6.289 A 0.478 0.478 0 0 0 137.573 5.89 Z M 373.108 51.88 L 372.376 77.393 A 5.103 5.103 0 0 0 372.503 78.578 A 2.854 2.854 0 0 0 374.085 80.597 Q 374.42 80.75 374.817 80.75 A 0.627 0.627 0 0 0 375.028 80.695 Q 375.623 80.458 377.396 79.193 A 84.677 84.677 0 0 1 377.911 78.828 Q 379.608 77.637 379.822 77.637 A 0.275 0.275 0 0 1 379.951 77.681 Q 380.213 77.832 380.757 78.491 A 14.942 14.942 0 0 1 380.844 78.598 Q 381.476 79.379 381.595 79.757 A 0.521 0.521 0 0 1 381.622 79.91 A 0.453 0.453 0 0 1 381.564 80.116 Q 381.427 80.381 380.965 80.758 A 6.941 6.941 0 0 1 380.783 80.902 Q 379.944 81.543 378.067 82.916 A 1997.308 1997.308 0 0 1 376.311 84.2 Q 375.409 84.858 374.402 85.592 A 3536.763 3536.763 0 0 1 373.718 86.09 A 22.679 22.679 0 0 1 372.703 86.792 Q 371.006 87.891 370.148 87.891 A 6.622 6.622 0 0 1 369.308 87.84 Q 368.877 87.785 368.509 87.669 A 3.668 3.668 0 0 1 368.271 87.586 Q 367.641 87.338 367.221 87.021 A 2.796 2.796 0 0 1 367.035 86.868 A 3.701 3.701 0 0 1 366.63 86.435 Q 366.45 86.213 366.279 85.941 A 6.718 6.718 0 0 1 366.165 85.754 A 12.191 12.191 0 0 1 365.909 85.297 Q 365.8 85.091 365.715 84.908 A 5.037 5.037 0 0 1 365.57 84.564 A 14.81 14.81 0 0 1 365.474 84.299 Q 365.322 83.87 365.128 83.252 Q 364.896 82.515 364.725 82.022 A 22.341 22.341 0 0 0 364.685 81.909 A 0.932 0.932 0 0 0 364.585 81.695 Q 364.281 81.228 363.512 81.671 A 3.211 3.211 0 0 0 363.373 81.757 Q 354.096 87.524 348.053 87.524 Q 343.453 87.524 340.391 85.782 A 10.421 10.421 0 0 1 338.623 84.519 A 9.904 9.904 0 0 1 335.289 77.728 A 13.753 13.753 0 0 1 335.236 76.508 A 11.888 11.888 0 0 1 339.111 67.645 A 16.436 16.436 0 0 1 339.874 66.956 A 33.611 33.611 0 0 1 344.536 63.614 A 25.902 25.902 0 0 1 349.304 61.401 A 112.799 112.799 0 0 1 356.728 59.166 A 85 85 0 0 1 363.617 57.648 A 0.506 0.506 0 0 0 363.945 57.394 Q 364.184 57.01 364.221 56.061 A 9.446 9.446 0 0 0 364.227 55.695 A 192.007 192.007 0 0 0 364.225 54.819 Q 364.22 53.649 364.2 52.794 A 62.912 62.912 0 0 0 364.197 52.673 A 47.237 47.237 0 0 0 364.176 52.035 Q 364.136 51.014 364.044 49.606 Q 363.928 47.815 363.658 46.747 A 7.159 7.159 0 0 0 363.632 46.646 Q 363.342 45.563 362.869 44.144 Q 362.473 42.954 361.851 42.194 A 4.107 4.107 0 0 0 361.603 41.916 A 12.837 12.837 0 0 0 360.534 40.947 A 16.03 16.03 0 0 0 359.741 40.344 A 7.24 7.24 0 0 0 357.004 39.121 Q 355.97 38.887 354.768 38.88 A 12.762 12.762 0 0 0 354.691 38.879 Q 352.253 38.879 350.432 39.429 A 9.433 9.433 0 0 0 349.533 39.749 Q 347.443 40.619 346.848 42.221 Q 346.31 43.668 346.258 46.299 A 29.193 29.193 0 0 0 346.252 46.875 Q 346.252 49.049 345.641 50.093 A 2.011 2.011 0 0 1 345.047 50.751 A 16.968 16.968 0 0 1 344.257 51.255 Q 343.464 51.735 342.324 52.341 A 78.911 78.911 0 0 1 341.217 52.918 A 60.766 60.766 0 0 1 340.308 53.374 Q 338.644 54.19 338.176 54.255 A 0.531 0.531 0 0 1 338.104 54.26 Q 337.003 54.26 336.976 51.691 A 12.448 12.448 0 0 1 336.975 51.56 A 12.763 12.763 0 0 1 337.72 47.321 A 15.369 15.369 0 0 1 338.196 46.127 A 15.318 15.318 0 0 1 340.821 42.061 A 14.4 14.4 0 0 1 341.431 41.428 A 21.931 21.931 0 0 1 345.978 38.025 A 24.586 24.586 0 0 1 349.953 36.161 Q 352.849 35.126 355.576 35.126 A 43.242 43.242 0 0 1 358.516 35.22 Q 361.135 35.399 363.037 35.919 Q 365.725 36.655 367.547 37.928 A 10.335 10.335 0 0 1 367.828 38.132 Q 369.721 39.551 370.911 41.687 A 15.552 15.552 0 0 1 372.413 45.561 Q 373.108 48.344 373.108 51.88 Z M 257.019 79.346 A 2.972 2.972 0 0 0 257.022 79.465 Q 257.095 81.298 259.43 83.13 A 17.101 17.101 0 0 0 260.544 83.934 Q 263.467 85.871 267.271 86.676 A 28.287 28.287 0 0 0 273.132 87.25 A 25.521 25.521 0 0 0 277.386 86.911 A 16.706 16.706 0 0 0 288.574 80.17 Q 291.138 76.66 291.138 72.144 A 9.485 9.485 0 0 0 289.772 67.254 Q 288.775 65.562 287.051 64.006 A 23.601 23.601 0 0 0 283.6 61.462 A 66.763 66.763 0 0 0 275.024 57.068 Q 274.811 56.976 273.972 56.549 Q 273.342 56.229 272.292 55.719 A 241.606 241.606 0 0 0 271.545 55.359 Q 269.989 54.566 268.066 53.101 A 6.478 6.478 0 0 1 265.883 50.291 A 7.185 7.185 0 0 1 265.411 47.638 Q 265.411 46.243 265.705 45.077 A 6.939 6.939 0 0 1 267.334 41.992 A 7.465 7.465 0 0 1 269.348 40.421 A 10.05 10.05 0 0 1 269.711 40.234 A 8.789 8.789 0 0 1 271.698 39.536 A 7.074 7.074 0 0 1 271.951 39.486 Q 272.729 39.345 273.877 39.299 A 30.476 30.476 0 0 1 275.101 39.276 Q 277.313 39.276 278.9 40.894 Q 279.633 41.596 280.151 42.465 A 12.712 12.712 0 0 1 280.34 42.791 A 11.176 11.176 0 0 1 281.006 44.205 A 37.815 37.815 0 0 0 281.338 45.036 A 29.253 29.253 0 0 0 281.662 45.792 A 5.163 5.163 0 0 0 281.671 45.813 Q 281.818 46.136 281.993 46.404 A 3.172 3.172 0 0 0 282.44 46.951 A 1.125 1.125 0 0 0 282.52 47.022 Q 282.851 47.286 283.442 47.363 A 4.089 4.089 0 0 0 283.966 47.394 A 4.058 4.058 0 0 0 284.459 47.361 Q 285.148 47.276 286.126 46.973 A 21.346 21.346 0 0 0 287.094 46.646 A 7.986 7.986 0 0 0 287.779 46.364 Q 289.154 45.714 289.154 44.891 A 6.265 6.265 0 0 0 288.41 41.959 A 8.881 8.881 0 0 0 287.201 40.222 A 10.967 10.967 0 0 0 286.557 39.547 A 12.481 12.481 0 0 0 284.637 38.04 A 9.08 9.08 0 0 0 284.05 37.694 Q 283.373 37.327 282.556 37.022 A 17.115 17.115 0 0 0 280.823 36.484 A 15.693 15.693 0 0 0 279.27 36.174 Q 277.382 35.889 274.857 35.889 Q 272.805 35.889 270.585 36.454 A 24.386 24.386 0 0 0 267.029 37.674 A 17.59 17.59 0 0 0 260.117 42.847 Q 257.385 46.234 257.385 50.385 A 11.211 11.211 0 0 0 260.72 58.384 A 18.479 18.479 0 0 0 264.13 61.127 A 31.094 31.094 0 0 0 265.578 61.979 Q 266.582 62.537 267.774 63.118 A 70.064 70.064 0 0 0 270.34 64.301 A 570.674 570.674 0 0 1 271.636 64.871 Q 273.626 65.749 274.782 66.28 A 59.758 59.758 0 0 1 275.574 66.65 Q 278.861 68.267 280.697 70.258 A 8.117 8.117 0 0 1 283.02 75.897 Q 283.02 77.283 282.722 78.425 A 6.311 6.311 0 0 1 280.762 81.68 A 7.714 7.714 0 0 1 277.528 83.348 A 10.529 10.529 0 0 1 274.948 83.649 A 14.069 14.069 0 0 1 273.123 83.534 A 10.985 10.985 0 0 1 268.738 82.016 A 23.553 23.553 0 0 1 267.706 81.345 Q 266.771 80.7 266.026 80.04 A 11.705 11.705 0 0 1 264.679 78.644 A 39.967 39.967 0 0 1 264.231 78.079 Q 263.188 76.737 262.756 75.913 A 30.251 30.251 0 0 0 262.522 75.474 Q 262.155 74.799 261.887 74.402 A 1.46 1.46 0 0 0 261.846 74.345 Q 261.655 74.09 261.389 73.975 A 1.202 1.202 0 0 0 260.91 73.883 Q 260.402 73.883 259.229 75.062 A 19.892 19.892 0 0 0 258.652 75.668 A 8.879 8.879 0 0 0 258.49 75.85 Q 257.019 77.55 257.019 79.346 Z M 673.309 57.648 L 645.416 57.007 Q 645.05 57.922 645.05 61.859 A 21.265 21.265 0 0 0 646.391 69.214 A 24.272 24.272 0 0 0 646.576 69.702 Q 648.102 73.608 650.604 76.111 A 18.848 18.848 0 0 0 655.878 79.856 A 16.482 16.482 0 0 0 662.933 81.39 A 19.524 19.524 0 0 0 674.587 77.478 A 28.297 28.297 0 0 0 678.436 74.097 Q 679.26 73.273 679.474 73.273 A 0.3 0.3 0 0 1 679.592 73.309 Q 679.905 73.461 680.801 74.234 A 18.101 18.101 0 0 1 681.173 74.563 Q 681.846 75.177 681.909 75.398 A 0.153 0.153 0 0 1 681.915 75.44 A 0.369 0.369 0 0 1 681.877 75.574 Q 681.749 75.868 681.184 76.613 A 28.328 28.328 0 0 1 680.924 76.95 A 15.27 15.27 0 0 1 680.205 77.795 Q 679.307 78.784 677.933 80.032 A 35.921 35.921 0 0 1 675.214 82.26 A 43.809 43.809 0 0 1 673.37 83.557 A 25.62 25.62 0 0 1 667.323 86.559 A 20.737 20.737 0 0 1 660.721 87.647 A 37.71 37.71 0 0 1 655.757 87.337 Q 653.096 86.983 650.833 86.226 A 21.443 21.443 0 0 1 649.597 85.77 A 21.793 21.793 0 0 1 644.539 82.927 A 18.992 18.992 0 0 1 641.922 80.521 Q 638.886 77.149 637.283 72.495 A 29.462 29.462 0 0 1 635.838 65.655 A 36.099 36.099 0 0 1 635.681 62.256 A 29.253 29.253 0 0 1 637.13 52.997 A 27.6 27.6 0 0 1 637.573 51.758 A 26.806 26.806 0 0 1 641.126 45.266 A 24.372 24.372 0 0 1 642.792 43.274 A 24.034 24.034 0 0 1 660.001 35.553 A 32.328 32.328 0 0 1 661.408 35.523 Q 670.654 35.523 675.69 41.687 A 20.939 20.939 0 0 1 680.316 53.355 A 27.124 27.124 0 0 1 680.42 55.756 A 1.132 1.132 0 0 1 679.793 56.712 Q 678.309 57.648 673.309 57.648 Z M 726.288 57.648 L 698.395 57.007 Q 698.029 57.922 698.029 61.859 A 21.265 21.265 0 0 0 699.37 69.214 A 24.272 24.272 0 0 0 699.554 69.702 Q 701.08 73.608 703.583 76.111 A 18.848 18.848 0 0 0 708.856 79.856 A 16.482 16.482 0 0 0 715.912 81.39 A 19.524 19.524 0 0 0 727.566 77.478 A 28.297 28.297 0 0 0 731.415 74.097 Q 732.239 73.273 732.452 73.273 A 0.3 0.3 0 0 1 732.57 73.309 Q 732.884 73.461 733.78 74.234 A 18.101 18.101 0 0 1 734.151 74.563 Q 734.824 75.177 734.887 75.398 A 0.153 0.153 0 0 1 734.894 75.44 A 0.369 0.369 0 0 1 734.856 75.574 Q 734.727 75.868 734.162 76.613 A 28.328 28.328 0 0 1 733.902 76.95 A 15.27 15.27 0 0 1 733.184 77.795 Q 732.286 78.784 730.911 80.032 A 35.921 35.921 0 0 1 728.192 82.26 A 43.809 43.809 0 0 1 726.349 83.557 A 25.62 25.62 0 0 1 720.302 86.559 A 20.737 20.737 0 0 1 713.699 87.647 A 37.71 37.71 0 0 1 708.735 87.337 Q 706.075 86.983 703.812 86.226 A 21.443 21.443 0 0 1 702.576 85.77 A 21.793 21.793 0 0 1 697.517 82.927 A 18.992 18.992 0 0 1 694.901 80.521 Q 691.864 77.149 690.262 72.495 A 29.462 29.462 0 0 1 688.816 65.655 A 36.099 36.099 0 0 1 688.66 62.256 A 29.253 29.253 0 0 1 690.108 52.997 A 27.6 27.6 0 0 1 690.552 51.758 A 26.806 26.806 0 0 1 694.104 45.266 A 24.372 24.372 0 0 1 695.77 43.274 A 24.034 24.034 0 0 1 712.979 35.553 A 32.328 32.328 0 0 1 714.386 35.523 Q 723.633 35.523 728.668 41.687 A 20.939 20.939 0 0 1 733.294 53.355 A 27.124 27.124 0 0 1 733.398 55.756 A 1.132 1.132 0 0 1 732.772 56.712 Q 731.288 57.648 726.288 57.648 Z M 304.26 78.003 L 304.504 50.903 A 60.112 60.112 0 0 0 304.471 48.811 Q 304.322 44.565 303.514 43.806 A 0.55 0.55 0 0 0 303.131 43.64 L 300.018 43.64 A 1.146 1.146 0 0 1 299.578 43.562 Q 299.081 43.356 299.02 42.609 A 2.704 2.704 0 0 1 299.011 42.389 Q 299.011 41.821 299.491 41.276 A 3.034 3.034 0 0 1 299.622 41.138 L 311.005 25.269 A 3.799 3.799 0 0 1 311.392 24.761 Q 311.965 24.139 312.622 24.139 A 1.801 1.801 0 0 1 313.186 24.22 Q 313.994 24.486 313.995 25.63 A 3.217 3.217 0 0 1 313.995 25.635 L 313.263 37.628 A 5.766 5.766 0 0 0 313.267 37.86 Q 313.281 38.191 313.336 38.329 A 0.202 0.202 0 0 0 313.385 38.406 Q 313.504 38.51 314.229 38.513 A 10.528 10.528 0 0 0 314.27 38.513 L 327.148 38.513 A 1.394 1.394 0 0 1 327.471 38.547 Q 327.906 38.651 327.985 39.072 A 1.102 1.102 0 0 1 328.003 39.276 A 0.761 0.761 0 0 1 327.991 39.377 Q 327.937 39.711 327.637 41 A 13.927 13.927 0 0 1 327.463 41.677 Q 327.186 42.642 326.884 43.015 A 1.104 1.104 0 0 1 326.859 43.045 A 1.306 1.306 0 0 1 326.224 43.44 Q 325.957 43.518 325.623 43.518 L 313.751 43.518 A 0.234 0.234 0 0 0 313.585 43.707 Q 313.265 44.52 313.263 48.832 A 118.13 118.13 0 0 0 313.263 48.889 L 313.263 72.876 Q 313.263 77.454 314.209 78.43 A 5.88 5.88 0 0 0 316.54 79.947 A 5.985 5.985 0 0 0 318.497 80.261 Q 321.014 80.261 323.288 79.773 A 56.192 56.192 0 0 0 324.894 79.405 Q 326.151 79.096 327.133 78.781 Q 328.498 78.344 329.08 78.286 A 1.628 1.628 0 0 1 329.239 78.278 A 0.41 0.41 0 0 1 329.612 78.517 Q 329.725 78.721 329.759 79.101 A 4.011 4.011 0 0 1 329.773 79.453 A 20.231 20.231 0 0 1 329.769 79.859 Q 329.754 80.624 329.675 80.808 A 0.226 0.226 0 0 1 329.666 80.826 Q 329.575 80.995 328.589 81.739 A 47.308 47.308 0 0 1 328.217 82.016 A 7.114 7.114 0 0 1 327.449 82.495 Q 325.756 83.432 321.762 84.946 A 49.086 49.086 0 0 1 319.35 85.794 Q 316.762 86.623 314.925 86.821 A 10.113 10.113 0 0 1 313.843 86.884 Q 311.035 86.884 309.128 86.06 A 8.544 8.544 0 0 1 307.625 85.234 A 6.313 6.313 0 0 1 306.183 83.862 Q 304.26 81.299 304.26 78.003 Z M 78.857 62.256 Q 78.857 56.946 80.75 52.017 A 27.287 27.287 0 0 1 84.581 45.108 A 25.145 25.145 0 0 1 85.968 43.457 A 24.052 24.052 0 0 1 103.068 35.571 A 32.64 32.64 0 0 1 104.858 35.523 A 23.245 23.245 0 0 1 113.13 36.942 A 20.612 20.612 0 0 1 121.552 42.938 A 25.794 25.794 0 0 1 127.752 58.337 A 33.467 33.467 0 0 1 127.838 60.761 A 34.606 34.606 0 0 1 126.832 69.321 A 25.294 25.294 0 0 1 121.246 80.017 A 22.176 22.176 0 0 1 107.127 87.367 A 31.713 31.713 0 0 1 102.844 87.647 A 23.173 23.173 0 0 1 92.526 85.374 A 23.291 23.291 0 0 1 85.724 80.261 A 25.412 25.412 0 0 1 78.859 62.587 A 32.619 32.619 0 0 1 78.857 62.256 Z M 503.357 62.256 Q 503.357 56.946 505.249 52.017 A 27.287 27.287 0 0 1 509.081 45.108 A 25.145 25.145 0 0 1 510.468 43.457 A 24.052 24.052 0 0 1 527.568 35.571 A 32.64 32.64 0 0 1 529.358 35.523 A 23.245 23.245 0 0 1 537.63 36.942 A 20.612 20.612 0 0 1 546.051 42.938 A 25.794 25.794 0 0 1 552.251 58.337 A 33.467 33.467 0 0 1 552.338 60.761 A 34.606 34.606 0 0 1 551.332 69.321 A 25.294 25.294 0 0 1 545.746 80.017 A 22.176 22.176 0 0 1 531.627 87.367 A 31.713 31.713 0 0 1 527.344 87.647 A 23.173 23.173 0 0 1 517.026 85.374 A 23.291 23.291 0 0 1 510.223 80.261 A 25.412 25.412 0 0 1 503.359 62.587 A 32.619 32.619 0 0 1 503.357 62.256 Z M 88.471 64.27 A 26.698 26.698 0 0 0 89.337 71.239 A 20.211 20.211 0 0 0 93.72 79.468 A 12.24 12.24 0 0 0 97.832 82.604 A 11.889 11.889 0 0 0 102.844 83.649 A 12.767 12.767 0 0 0 115.024 76.437 Q 117.855 71.029 118.083 61.565 A 70.14 70.14 0 0 0 118.103 59.876 A 30.04 30.04 0 0 0 117.342 52.913 A 20.048 20.048 0 0 0 111.664 42.786 A 11.68 11.68 0 0 0 103.333 39.52 A 12.323 12.323 0 0 0 91.548 46.87 Q 88.471 53.007 88.471 64.27 Z M 512.97 64.27 A 26.698 26.698 0 0 0 513.836 71.239 A 20.211 20.211 0 0 0 518.219 79.468 A 12.24 12.24 0 0 0 522.331 82.604 A 11.889 11.889 0 0 0 527.344 83.649 A 12.767 12.767 0 0 0 539.523 76.437 Q 542.355 71.029 542.583 61.565 A 70.14 70.14 0 0 0 542.603 59.876 A 30.04 30.04 0 0 0 541.842 52.913 A 20.048 20.048 0 0 0 536.163 42.786 A 11.68 11.68 0 0 0 527.832 39.52 A 12.323 12.323 0 0 0 516.048 46.87 Q 512.97 53.007 512.97 64.27 Z M 21.606 12.146 L 21.606 42.511 Q 21.606 43.116 23.045 43.15 A 7.488 7.488 0 0 0 23.224 43.152 L 39.246 43.396 A 13.154 13.154 0 0 0 39.683 43.389 Q 40.291 43.369 40.576 43.287 A 1.056 1.056 0 0 0 40.619 43.274 A 17.87 17.87 0 0 0 48.148 37.021 Q 51.361 32.212 51.361 24.902 A 17.513 17.513 0 0 0 49.047 15.875 Q 46.623 11.739 41.657 8.85 A 25.596 25.596 0 0 0 35.585 6.279 A 21.21 21.21 0 0 0 29.999 5.524 A 224.707 224.707 0 0 0 27.615 5.535 Q 23.702 5.577 22.247 5.768 A 0.317 0.317 0 0 0 22.017 6.021 Q 21.606 7.039 21.606 12.146 Z M 148.438 44.128 L 148.193 77.393 Q 148.193 79.889 149.268 80.91 A 2.377 2.377 0 0 0 149.582 81.162 A 24.638 24.638 0 0 0 150.402 81.69 Q 151.162 82.157 151.738 82.416 A 6.524 6.524 0 0 0 151.871 82.474 A 6.094 6.094 0 0 0 152.675 82.746 Q 153.076 82.853 153.538 82.929 A 11.875 11.875 0 0 0 154.114 83.008 A 35.718 35.718 0 0 0 156.244 83.183 Q 157.523 83.252 158.966 83.252 A 14.243 14.243 0 0 0 162.698 82.735 A 17.811 17.811 0 0 0 164.581 82.108 A 15.585 15.585 0 0 0 168.627 79.789 A 14.432 14.432 0 0 0 169.586 78.949 A 19.386 19.386 0 0 0 172.998 74.556 A 21.809 21.809 0 0 0 173.187 74.219 Q 176.178 68.848 176.178 63.309 Q 176.178 58.623 175.042 55.139 A 17.473 17.473 0 0 0 174.591 53.909 Q 173.004 50.049 170.38 47.241 A 19.936 19.936 0 0 0 164.347 42.81 A 18.227 18.227 0 0 0 156.555 41.138 Q 154.083 41.138 151.26 42.267 Q 148.438 43.396 148.438 44.128 Z M 646.79 54.138 L 668.243 53.589 A 26.943 26.943 0 0 0 669.052 53.578 Q 670.659 53.529 670.974 53.27 A 0.18 0.18 0 0 0 671.051 53.131 Q 671.051 44.159 665.497 40.68 A 11.159 11.159 0 0 0 662.413 39.323 A 9.748 9.748 0 0 0 659.927 39.002 Q 657.044 39.002 654.404 40.405 A 15.034 15.034 0 0 0 650.048 43.841 A 14.481 14.481 0 0 0 649.933 43.976 Q 646.027 48.645 645.66 53.528 Q 645.66 54.138 646.79 54.138 Z M 699.768 54.138 L 721.222 53.589 A 26.943 26.943 0 0 0 722.031 53.578 Q 723.638 53.529 723.953 53.27 A 0.18 0.18 0 0 0 724.03 53.131 Q 724.03 44.159 718.475 40.68 A 11.159 11.159 0 0 0 715.391 39.323 A 9.748 9.748 0 0 0 712.906 39.002 Q 710.022 39.002 707.382 40.405 A 15.034 15.034 0 0 0 703.027 43.841 A 14.481 14.481 0 0 0 702.911 43.976 Q 699.005 48.645 698.639 53.528 Q 698.639 54.138 699.768 54.138 Z M 364.227 77.759 L 364.227 61.401 A 5.339 5.339 0 0 0 364.219 61.085 Q 364.178 60.394 363.937 60.394 Q 363.666 60.394 362.687 60.581 A 42.086 42.086 0 0 0 362.549 60.608 Q 351.213 62.821 347.087 67.231 A 8.205 8.205 0 0 0 344.727 72.998 Q 344.727 75.012 345.596 76.859 Q 346.466 78.705 348.282 79.987 A 6.97 6.97 0 0 0 352.402 81.268 Q 354.706 81.268 357.544 80.566 Q 363.459 79.108 364.139 78.032 A 0.511 0.511 0 0 0 364.227 77.759 Z" vector-effect="non-scaling-stroke"/></g></svg>